<svg id="Layer_1" data-name="Layer 1" xmlns="http://www.w3.org/2000/svg" viewBox="0 0 501 501"><defs><style>.cls-1{fill:#1f253c;stroke:#1d1d1b;stroke-miterlimit:10;}.cls-2{fill:#db9e67;}.cls-3{fill:#dbdee3;}.cls-4{fill:#6d6889;}.cls-5{fill:#a5aed4;}.cls-6{fill:#b3b5b7;}.cls-7{fill:#eec88f;}.cls-8{fill:#56535c;}.cls-9{fill:#f18725;}.cls-10{fill:#fbbf1b;}</style></defs><title>Cheap-icon</title><circle class="cls-1" cx="250.5" cy="250.5" r="250"/><path class="cls-2" d="M390.09,489.69V437.77a13,13,0,0,1,13-13A51.93,51.93,0,0,1,455,476.71v13Z" transform="translate(-236.2 -370.25)"/><path class="cls-2" d="M299.23,606.52h26V541.61h-26a13,13,0,0,0-13,13v38.94A13,13,0,0,0,299.23,606.52Z" transform="translate(-236.2 -370.25)"/><path class="cls-3" d="M318.7,723.35c-10.74,0-19.47,7.28-19.47,16.23S308,755.8,318.7,755.8H526.4V723.35Z" transform="translate(-236.2 -370.25)"/><path class="cls-4" d="M669.19,710.37H526.4a6.49,6.49,0,0,1,0,13H669.19a6.49,6.49,0,0,0,0-13Z" transform="translate(-236.2 -370.25)"/><path class="cls-4" d="M669.19,755.8H526.4a6.49,6.49,0,1,1,0,13H669.19a6.49,6.49,0,0,0,0-13Z" transform="translate(-236.2 -370.25)"/><path class="cls-5" d="M526.4,768.78H318.7c-17.9,0-32.46-13.1-32.46-29.2s14.56-29.21,32.46-29.21H526.4a6.49,6.49,0,0,1,0,13H318.7c-10.74,0-19.47,7.28-19.47,16.23S308,755.8,318.7,755.8H526.4a6.49,6.49,0,1,1,0,13Z" transform="translate(-236.2 -370.25)"/><path class="cls-6" d="M526.4,723.35H669.19V755.8H526.4Z" transform="translate(-236.2 -370.25)"/><path class="cls-7" d="M578.32,476.71H409.57a97.36,97.36,0,0,0,0,194.72H578.32a97.36,97.36,0,0,0,0-194.72Z" transform="translate(-236.2 -370.25)"/><path class="cls-2" d="M675.68,574.07a97.4,97.4,0,0,1-97.36,97.36H409.57a96.8,96.8,0,0,1-68.8-28.56,99,99,0,0,1-9.09-10.39H506.92A129.78,129.78,0,0,0,636.74,502.67v-6.49a99.9,99.9,0,0,1,10.38,9.09A96.84,96.84,0,0,1,675.68,574.07Z" transform="translate(-236.2 -370.25)"/><path class="cls-8" d="M448.51,528.63H578.32a13,13,0,0,0,0-26H448.51a13,13,0,0,0,0,26Z" transform="translate(-236.2 -370.25)"/><circle class="cls-8" cx="153.9" cy="171.37" r="12.98"/><path class="cls-2" d="M461.49,710.37H422.55a13,13,0,0,1-13-13v-26h64.9v26A13,13,0,0,1,461.49,710.37Z" transform="translate(-236.2 -370.25)"/><path class="cls-2" d="M565.34,710.37H526.4a13,13,0,0,1-13-13v-26h64.91v26A13,13,0,0,1,565.34,710.37Z" transform="translate(-236.2 -370.25)"/><path class="cls-9" d="M519.9,424.78h-13a58.42,58.42,0,0,0,0,116.83h13a58.42,58.42,0,1,0,0-116.83Z" transform="translate(-236.2 -370.25)"/><circle class="cls-10" cx="270.73" cy="112.95" r="58.42"/><path class="cls-9" d="M506.92,476.71a9.74,9.74,0,1,1,9.74-9.74,6.49,6.49,0,1,0,13,0,22.68,22.68,0,0,0-16.23-21.66V441a6.49,6.49,0,1,0-13,0v4.3a22.66,22.66,0,0,0,6.49,44.38,9.74,9.74,0,1,1-9.73,9.74,6.49,6.49,0,0,0-13,0,22.66,22.66,0,0,0,16.22,21.65v4.31a6.49,6.49,0,1,0,13,0v-4.31a22.65,22.65,0,0,0-6.49-44.37Z" transform="translate(-236.2 -370.25)"/><path class="cls-7" d="M464.74,528.63h97.35v26H464.74Z" transform="translate(-236.2 -370.25)"/></svg>