<svg id="Layer_1" data-name="Layer 1" xmlns="http://www.w3.org/2000/svg" viewBox="0 0 1918.81 512"><defs><style>.cls-1{fill:#a5aed4;}.cls-2{fill:#fab857;}.cls-3{fill:#010101;}</style></defs><title>stock-icon</title><path class="cls-1" d="M56.34,836.45H432.87v40H56.34Z" transform="translate(-1.19 -428.45)"/><path class="cls-1" d="M56.34,644.45H432.87v40H56.34Z" transform="translate(-1.19 -428.45)"/><path class="cls-1" d="M10.7,438.45H56.34v492H10.7Z" transform="translate(-1.19 -428.45)"/><path class="cls-1" d="M432.87,438.45h45.64v492H432.87Z" transform="translate(-1.19 -428.45)"/><path class="cls-2" d="M107.68,740.45H199v96H107.68Z" transform="translate(-1.19 -428.45)"/><path class="cls-2" d="M199.09,740.45h91.28v96H199.09Z" transform="translate(-1.19 -428.45)"/><path class="cls-2" d="M290.49,740.45h91.28v96H290.49Z" transform="translate(-1.19 -428.45)"/><path class="cls-2" d="M107.68,548.45H199v96H107.68Z" transform="translate(-1.19 -428.45)"/><path class="cls-2" d="M199.09,548.45h91.28v96H199.09Z" transform="translate(-1.19 -428.45)"/><path class="cls-2" d="M153.38,452.45h91.28v96H153.38Z" transform="translate(-1.19 -428.45)"/><path class="cls-2" d="M244.79,452.45h91.28v96H244.79Z" transform="translate(-1.19 -428.45)"/><path class="cls-2" d="M290.49,548.45h91.28v96H290.49Z" transform="translate(-1.19 -428.45)"/><path class="cls-3" d="M156.82,866.45a9.35,9.35,0,0,0-6.73,2.93,10.38,10.38,0,0,0,0,14.14,9.17,9.17,0,0,0,13.44,0,10.35,10.35,0,0,0,0-14.14A9.31,9.31,0,0,0,156.82,866.45Z" transform="translate(-1.19 -428.45)"/><path class="cls-3" d="M347.53,674.45a9.35,9.35,0,0,0-6.72,2.93,10.38,10.38,0,0,0,0,14.14,9.18,9.18,0,0,0,13.45,0,10.38,10.38,0,0,0,0-14.14A9.37,9.37,0,0,0,347.53,674.45Z" transform="translate(-1.19 -428.45)"/><path class="cls-3" d="M478.51,428.45H432.87a9.76,9.76,0,0,0-9.51,10v196H391.28v-86a9.76,9.76,0,0,0-9.51-10H345.58v-86a9.76,9.76,0,0,0-9.51-10H153.38a9.76,9.76,0,0,0-9.51,10v86H107.68a9.76,9.76,0,0,0-9.51,10v86H65.85v-196a9.76,9.76,0,0,0-9.51-10H10.7a9.75,9.75,0,0,0-9.51,10v492a9.76,9.76,0,0,0,9.51,10H56.34a9.77,9.77,0,0,0,9.51-10v-44H122.9a10,10,0,0,0,0-20H65.85v-20H423.36v20H191.83a10,10,0,0,0,0,20H423.36v44a9.77,9.77,0,0,0,9.51,10h45.64a9.76,9.76,0,0,0,9.51-10v-492A9.75,9.75,0,0,0,478.51,428.45Zm-106.25,170H347.54a10,10,0,0,0,0,20h24.72v16H300v-76h72.26Zm-163.66-40h72.26v40H256.14a10,10,0,0,0,0,20h24.72v16H208.6Zm45.7-96h72.26v40H301.84a10,10,0,0,0,0,20h24.72v16H254.3Zm-91.41,0h72.27v40H210.43a10,10,0,0,0,0,20h24.73v16H162.89Zm-45.7,96h72.27v40H164.73a10,10,0,0,0,0,20h24.73v16H117.19Zm-70.36,362H20.2v-472H46.83Zm70.36-94v-76h72.27v40H164.73a10,10,0,0,0,0,20h24.73v16Zm91.41,0v-76h72.26v40H256.14a10,10,0,0,0,0,20h24.72v16Zm91.4,0v-76h72.26v40H347.54a10,10,0,0,0,0,20h24.72v16Zm91.28,0v-86a9.76,9.76,0,0,0-9.51-10H107.69a9.75,9.75,0,0,0-9.51,10v86H65.85v-132H305.46a10,10,0,0,0,0-20H65.85v-20H423.36v20H386.92a10,10,0,0,0,0,20h36.44v132Zm77.73,94H442.38v-472H469Z" transform="translate(-1.19 -428.45)"/><path class="cls-1" d="M543.17,836.45H919.71v40H543.17Z" transform="translate(-1.19 -428.45)"/><path class="cls-1" d="M543.17,644.45H919.71v40H543.17Z" transform="translate(-1.19 -428.45)"/><path class="cls-1" d="M497.53,438.45h45.64v492H497.53Z" transform="translate(-1.19 -428.45)"/><path class="cls-1" d="M919.71,438.45h45.64v492H919.71Z" transform="translate(-1.19 -428.45)"/><path class="cls-2" d="M594.52,740.45H685.8v96H594.52Z" transform="translate(-1.19 -428.45)"/><path class="cls-2" d="M685.92,740.45H777.2v96H685.92Z" transform="translate(-1.19 -428.45)"/><path class="cls-2" d="M777.32,740.45H868.6v96H777.32Z" transform="translate(-1.19 -428.45)"/><path class="cls-2" d="M594.52,548.45H685.8v96H594.52Z" transform="translate(-1.19 -428.45)"/><path class="cls-2" d="M685.92,548.45H777.2v96H685.92Z" transform="translate(-1.19 -428.45)"/><path class="cls-2" d="M640.22,452.45H731.5v96H640.22Z" transform="translate(-1.19 -428.45)"/><path class="cls-2" d="M731.62,452.45H822.9v96H731.62Z" transform="translate(-1.19 -428.45)"/><path class="cls-2" d="M777.32,548.45H868.6v96H777.32Z" transform="translate(-1.19 -428.45)"/><path class="cls-3" d="M643.65,866.45a9.33,9.33,0,0,0-6.72,2.93,10.35,10.35,0,0,0,0,14.14,9.17,9.17,0,0,0,13.44,0,10.35,10.35,0,0,0,0-14.14A9.33,9.33,0,0,0,643.65,866.45Z" transform="translate(-1.19 -428.45)"/><path class="cls-3" d="M834.37,674.45a9.33,9.33,0,0,0-6.72,2.93,10.35,10.35,0,0,0,0,14.14,9.17,9.17,0,0,0,13.44,0,10.35,10.35,0,0,0,0-14.14A9.35,9.35,0,0,0,834.37,674.45Z" transform="translate(-1.19 -428.45)"/><path class="cls-3" d="M965.35,428.45H919.71a9.76,9.76,0,0,0-9.51,10v196H878.11v-86a9.75,9.75,0,0,0-9.51-10H832.41v-86a9.76,9.76,0,0,0-9.51-10H640.22a9.76,9.76,0,0,0-9.51,10v86H594.52a9.76,9.76,0,0,0-9.51,10v86H552.68v-196a9.76,9.76,0,0,0-9.51-10H497.53a9.76,9.76,0,0,0-9.51,10v492a9.77,9.77,0,0,0,9.51,10h45.64a9.77,9.77,0,0,0,9.51-10v-44h57.05a10,10,0,0,0,0-20H552.68v-20H910.2v20H678.67a10,10,0,0,0,0,20H910.2v44a9.77,9.77,0,0,0,9.51,10h45.64a9.77,9.77,0,0,0,9.51-10v-492A9.76,9.76,0,0,0,965.35,428.45Zm-106.26,170H834.37a10,10,0,0,0,0,20h24.72v16H786.83v-76h72.26Zm-163.66-40h72.26v40H743a10,10,0,0,0,0,20h24.72v16H695.43Zm45.7-96h72.26v40H788.67a10,10,0,0,0,0,20h24.72v16H741.13Zm-91.4,0H722v40H697.27a10,10,0,0,0,0,20H722v16H649.73Zm-45.7,96h72.26v40H651.57a10,10,0,0,0,0,20h24.72v16H604Zm-70.37,362H507v-472h26.62Zm70.37-94v-76h72.26v40H651.57a10,10,0,0,0,0,20h24.72v16Zm91.4,0v-76h72.26v40H743a10,10,0,0,0,0,20h24.72v16Zm91.4,0v-76h72.26v40H834.37a10,10,0,0,0,0,20h24.72v16Zm91.28,0v-86a9.75,9.75,0,0,0-9.51-10H594.52a9.76,9.76,0,0,0-9.51,10v86H552.68v-132H792.29a10,10,0,0,0,0-20H552.68v-20H910.2v20H873.75a10,10,0,0,0,0,20H910.2v132Zm77.73,94H929.22v-472h26.62Z" transform="translate(-1.19 -428.45)"/><path class="cls-1" d="M1020.5,836.45H1397v40H1020.5Z" transform="translate(-1.19 -428.45)"/><path class="cls-1" d="M1020.5,644.45H1397v40H1020.5Z" transform="translate(-1.19 -428.45)"/><path class="cls-1" d="M974.86,438.45h45.64v492H974.86Z" transform="translate(-1.19 -428.45)"/><path class="cls-1" d="M1397,438.45h45.64v492H1397Z" transform="translate(-1.19 -428.45)"/><path class="cls-2" d="M1071.84,740.45h91.28v96h-91.28Z" transform="translate(-1.19 -428.45)"/><path class="cls-2" d="M1163.25,740.45h91.28v96h-91.28Z" transform="translate(-1.19 -428.45)"/><path class="cls-2" d="M1254.65,740.45h91.28v96h-91.28Z" transform="translate(-1.19 -428.45)"/><path class="cls-2" d="M1071.84,548.45h91.28v96h-91.28Z" transform="translate(-1.19 -428.45)"/><path class="cls-2" d="M1163.25,548.45h91.28v96h-91.28Z" transform="translate(-1.19 -428.45)"/><path class="cls-2" d="M1117.54,452.45h91.28v96h-91.28Z" transform="translate(-1.19 -428.45)"/><path class="cls-2" d="M1209,452.45h91.28v96H1209Z" transform="translate(-1.19 -428.45)"/><path class="cls-2" d="M1254.65,548.45h91.28v96h-91.28Z" transform="translate(-1.19 -428.45)"/><path class="cls-3" d="M1121,866.45a9.35,9.35,0,0,0-6.73,2.93,10.38,10.38,0,0,0,0,14.14,9.17,9.17,0,0,0,13.44,0,10.35,10.35,0,0,0,0-14.14A9.31,9.31,0,0,0,1121,866.45Z" transform="translate(-1.19 -428.45)"/><path class="cls-3" d="M1311.69,674.45a9.36,9.36,0,0,0-6.72,2.93,10.38,10.38,0,0,0,0,14.14,9.18,9.18,0,0,0,13.45,0,10.38,10.38,0,0,0,0-14.14A9.37,9.37,0,0,0,1311.69,674.45Z" transform="translate(-1.19 -428.45)"/><path class="cls-3" d="M1442.67,428.45H1397a9.76,9.76,0,0,0-9.51,10v196h-32.08v-86a9.76,9.76,0,0,0-9.51-10h-36.19v-86a9.76,9.76,0,0,0-9.51-10H1117.54a9.77,9.77,0,0,0-9.51,10v86h-36.19a9.76,9.76,0,0,0-9.51,10v86H1030v-196a9.76,9.76,0,0,0-9.51-10H974.86a9.75,9.75,0,0,0-9.51,10v492a9.76,9.76,0,0,0,9.51,10h45.64a9.77,9.77,0,0,0,9.51-10v-44h57a10,10,0,0,0,0-20h-57v-20h357.51v20H1156a10,10,0,0,0,0,20h231.53v44a9.77,9.77,0,0,0,9.51,10h45.64a9.76,9.76,0,0,0,9.51-10v-492A9.75,9.75,0,0,0,1442.67,428.45Zm-106.25,170H1311.7a10,10,0,0,0,0,20h24.72v16h-72.26v-76h72.26Zm-163.66-40H1245v40H1220.3a10,10,0,0,0,0,20H1245v16h-72.26Zm45.7-96h72.26v40H1266a10,10,0,0,0,0,20h24.72v16h-72.26Zm-91.41,0h72.27v40h-24.73a10,10,0,0,0,0,20h24.73v16h-72.27Zm-45.7,96h72.27v40h-24.73a10,10,0,0,0,0,20h24.73v16h-72.27Zm-70.36,362H984.37v-472H1011Zm70.36-94v-76h72.27v40h-24.73a10,10,0,0,0,0,20h24.73v16Zm91.41,0v-76H1245v40H1220.3a10,10,0,0,0,0,20H1245v16Zm91.4,0v-76h72.26v40H1311.7a10,10,0,0,0,0,20h24.72v16Zm91.28,0v-86a9.76,9.76,0,0,0-9.51-10H1071.85a9.76,9.76,0,0,0-9.51,10v86H1030v-132h239.61a10,10,0,0,0,0-20H1030v-20h357.51v20h-36.44a10,10,0,0,0,0,20h36.44v132Zm77.73,94h-26.63v-472h26.63Z" transform="translate(-1.19 -428.45)"/><path class="cls-1" d="M1488.31,836.45h376.54v40H1488.31Z" transform="translate(-1.19 -428.45)"/><path class="cls-1" d="M1488.31,644.45h376.54v40H1488.31Z" transform="translate(-1.19 -428.45)"/><path class="cls-1" d="M1442.67,438.45h45.64v492h-45.64Z" transform="translate(-1.19 -428.45)"/><path class="cls-1" d="M1864.85,438.45h45.64v492h-45.64Z" transform="translate(-1.19 -428.45)"/><path class="cls-2" d="M1539.66,740.45h91.28v96h-91.28Z" transform="translate(-1.19 -428.45)"/><path class="cls-2" d="M1631.06,740.45h91.29v96h-91.29Z" transform="translate(-1.19 -428.45)"/><path class="cls-2" d="M1722.46,740.45h91.29v96h-91.29Z" transform="translate(-1.19 -428.45)"/><path class="cls-2" d="M1539.66,548.45h91.28v96h-91.28Z" transform="translate(-1.19 -428.45)"/><path class="cls-2" d="M1631.06,548.45h91.29v96h-91.29Z" transform="translate(-1.19 -428.45)"/><path class="cls-2" d="M1585.36,452.45h91.28v96h-91.28Z" transform="translate(-1.19 -428.45)"/><path class="cls-2" d="M1676.76,452.45h91.29v96h-91.29Z" transform="translate(-1.19 -428.45)"/><path class="cls-2" d="M1722.46,548.45h91.29v96h-91.29Z" transform="translate(-1.19 -428.45)"/><path class="cls-3" d="M1588.79,866.45a9.35,9.35,0,0,0-6.72,2.93,10.35,10.35,0,0,0,0,14.14,9.17,9.17,0,0,0,13.44,0,10.35,10.35,0,0,0,0-14.14A9.33,9.33,0,0,0,1588.79,866.45Z" transform="translate(-1.19 -428.45)"/><path class="cls-3" d="M1779.51,674.45a9.35,9.35,0,0,0-6.72,2.93,10.35,10.35,0,0,0,0,14.14,9.17,9.17,0,0,0,13.44,0,10.35,10.35,0,0,0,0-14.14A9.33,9.33,0,0,0,1779.51,674.45Z" transform="translate(-1.19 -428.45)"/><path class="cls-3" d="M1910.49,428.45h-45.64a9.76,9.76,0,0,0-9.51,10v196h-32.09v-86a9.75,9.75,0,0,0-9.5-10h-36.2v-86a9.76,9.76,0,0,0-9.5-10H1585.36a9.76,9.76,0,0,0-9.51,10v86h-36.19a9.76,9.76,0,0,0-9.51,10v86h-32.33v-196a9.75,9.75,0,0,0-9.51-10h-45.64a9.75,9.75,0,0,0-9.5,10v492a9.76,9.76,0,0,0,9.5,10h45.64a9.76,9.76,0,0,0,9.51-10v-44h57a10,10,0,0,0,0-20h-57v-20h357.52v20H1623.81a10,10,0,0,0,0,20h231.53v44a9.77,9.77,0,0,0,9.51,10h45.64a9.77,9.77,0,0,0,9.51-10v-492A9.76,9.76,0,0,0,1910.49,428.45Zm-106.25,170h-24.72a10,10,0,0,0,0,20h24.72v16H1732v-76h72.27Zm-163.67-40h72.27v40h-24.72a10,10,0,0,0,0,20h24.72v16h-72.27Zm45.7-96h72.27v40h-24.72a10,10,0,0,0,0,20h24.72v16h-72.27Zm-91.4,0h72.26v40h-24.72a10,10,0,0,0,0,20h24.72v16h-72.26Zm-45.7,96h72.26v40h-24.72a10,10,0,0,0,0,20h24.72v16h-72.26Zm-70.36,362h-26.63v-472h26.63Zm70.36-94v-76h72.26v40h-24.72a10,10,0,0,0,0,20h24.72v16Zm91.4,0v-76h72.27v40h-24.72a10,10,0,0,0,0,20h24.72v16Zm91.4,0v-76h72.27v40h-24.72a10,10,0,0,0,0,20h24.72v16Zm91.28,0v-86a9.75,9.75,0,0,0-9.5-10H1539.66a9.75,9.75,0,0,0-9.5,10v86h-32.34v-132h239.62a10,10,0,0,0,0-20H1497.82v-20h357.52v20h-36.45a10,10,0,0,0,0,20h36.45v132Zm77.73,94h-26.62v-472H1901Z" transform="translate(-1.19 -428.45)"/></svg>