<?xml version="1.0" encoding="utf-8"?>
<!-- Generator: Adobe Illustrator 24.1.1, SVG Export Plug-In . SVG Version: 6.00 Build 0)  -->
<svg version="1.1" id="adb70ced-db85-4cc8-a8af-ce8a9a5cd296"
	 xmlns="http://www.w3.org/2000/svg" xmlns:xlink="http://www.w3.org/1999/xlink" x="0px" y="0px" viewBox="0 0 699.6 723"
	 style="enable-background:new 0 0 699.6 723;" xml:space="preserve">
<style type="text/css">
	.st0{fill:#E6E6E6;}
	.st1{fill:#6D6889;}
	.st2{fill:#FCF7F4;}
	.st3{fill:#575A89;}
	.st4{fill:#554C61;}
	.st5{fill:#AECAD9;}
	.st6{fill:#2F2E41;}
	.st7{fill:#FFB8B8;}
	.st8{fill:#ECB28B;}
	.st9{fill:#FFFFFF;}
</style>
<g>
	<ellipse class="st0" cx="349.8" cy="716" rx="122" ry="7"/>
	<path class="st0" d="M447.6,710.1c15.3-17.4,87.3-103.1,36.1-117.2c-38.5-10.6-42.7,47.8-41.5,86.9c-6.2-26.4-18.1-57.2-39.1-43.6
		c-30.3,19.6,26.4,63,41.3,73.6c0.2,2.2,0.4,3.4,0.4,3.4s0.6-0.7,1.7-1.9c0.8,0.6,1.3,0.9,1.3,0.9S447.7,711.5,447.6,710.1z"/>
	<rect x="0.3" y="8.1" class="st1" width="699.3" height="447.9"/>
	<rect x="20.3" y="64.3" class="st2" width="659.3" height="365.2"/>
	<rect x="494.8" y="101.7" class="st3" width="142.1" height="79.9"/>
	<rect x="494.8" y="206.9" class="st4" width="142.1" height="79.9"/>
	<rect x="494.8" y="312.1" class="st5" width="142.1" height="79.9"/>
	<rect x="63" y="101.7" class="st4" width="142.1" height="79.9"/>
	<rect x="63" y="206.9" class="st5" width="142.1" height="79.9"/>
	<rect x="63" y="308.9" class="st3" width="142.1" height="79.9"/>
	<circle class="st6" cx="357.9" cy="120.2" r="28.9"/>
	<path class="st7" d="M460.9,28.3l9.7-8.1c4.8-4,5.5-11.2,1.4-16.1c-0.2-0.2-0.4-0.4-0.6-0.6l0,0c-4.4-4.5-11.6-4.6-16.1-0.2
		c-1.2,1.1-2.1,2.5-2.7,4L448,19l-36.9,63.3l-18.8,51.3l15.1,18.1l20.3-62.7L460.9,28.3z"/>
	<path class="st7" d="M255.6,28.3l-9.7-8.1c-4.8-4-5.5-11.2-1.4-16.1c0.2-0.2,0.4-0.4,0.6-0.6l0,0c4.4-4.5,11.6-4.6,16.1-0.2
		c1.2,1.1,2.1,2.5,2.7,4l4.6,11.8l36.9,63.3l20.6,51.9L309,151.8l-20.3-62.7L255.6,28.3z"/>
	<circle class="st6" cx="359.1" cy="91.3" r="14.8"/>
	<polygon class="st7" points="360.4,553 347.2,552.1 347.8,371.9 380.4,379.9 	"/>
	<path class="st6" d="M345.5,597.8L345.5,597.8c-5.4-0.1-10.1-3.5-11.8-8.6c-2.9-8.4-1.4-16.5,3.6-24.2l-1.6-11.4
		c-0.5-3.7,0.6-7.4,3-10.2l8.5-9.7v12.3c6.2-5.4,10-5.6,15.4-1.2l-4.9,25.2l1.2,13.8c0.6,7.1-4.7,13.4-11.8,14
		C346.5,597.8,346,597.8,345.5,597.8z"/>
	<path class="st7" d="M381.6,187.5l-51.6-1.2c7.3-7.1,17.8-34.4,16-42.4h25.2C368.1,152.1,374,180.2,381.6,187.5z"/>
	<path class="st8" d="M395.1,282.2l-71.3-20.9l2.5-30.7l-6.1-31.4c0.6-3.4-15.6-45.4-14.8-48.6c3.4-12.6,12.3-10.8,18.8-20
		c1-1.5,9.2,8.9,14.5,16c0.6,1.1,1.1,1.8,1.4,2.3c2,3.4,2.9,7.3,2.5,11.2l0,0.1l0,0c-2.9,10,3.8,5.9,14.2,6.1l0,0
		c8.9,0.1,16.9,7.2,16.9-1.7l0,0c0-0.5,0-1-0.1-1.6c-0.2-4.5,0.9-9,3.1-13c0.1-0.2-0.5,0.8,2.8-4.9c6-8.5,14.3-19.8,14.7-18.2
		c1.9,6.7,11.6,12.4,15.1,24.3c0.5,1.8-2.6,13-2.5,14.8c1.4,13.5-1.2,20.9-2.5,31.4C396.7,224.9,393.6,253.6,395.1,282.2z"/>
	<path class="st6" d="M385.3,387.3L344.7,375l-0.6-36.9l-32-61.5l12.3-20.3l70.1,18.4C399.3,305.4,394,344.8,385.3,387.3z"/>
	<polygon class="st6" points="366.2,338.1 344.1,338.1 302.9,280.3 317.6,268 	"/>
	<path class="st6" d="M376.7,337.5h-36.8c-8.7,0-17.3-2.6-24.5-7.5c-16.1-10.9-21.3-32.3-12.5-49.7l0,0l73.8,3.7V337.5z"/>
	<path class="st7" d="M344.5,296.1l-32.4-1c-0.1-0.3-0.2-0.6-0.3-0.9c-4.3-12.3,2.2-25.6,14.1-30.6c1.2-0.5,2.4-1,3.7-1.4
		c10.1-3.5,21.1,1.8,24.6,11.9c0.7,1.9,1,4,1.1,6c0,2.5-0.1,4.9-0.5,7.4C354.1,292.5,349.6,296.2,344.5,296.1z"/>
	<polygon class="st7" points="326.9,394.7 314,394.7 312.1,290.2 348.4,289.5 	"/>
	<path class="st6" d="M312.3,440.6L312.3,440.6c-5.4-0.1-10.1-3.5-11.8-8.6c-2.9-8.4-1.4-16.5,3.6-24.2l-1.6-11.4
		c-0.5-3.7,0.6-7.4,3-10.2l8.5-9.7v12.3c6.2-5.4,10-5.6,15.4-1.2l-4.9,25.2l1.2,13.8c0.6,7.1-4.7,13.4-11.8,14
		C313.3,440.6,312.8,440.6,312.3,440.6z"/>
	<circle class="st7" cx="358.8" cy="127.8" r="25.2"/>
	<path class="st6" d="M381,116.8c0,12.9-11.7-5.5-24.6-5.5s-22.1,18.4-22.1,5.5c0-12.9,10.5-23.4,23.4-23.3
		C370.5,93.5,381,103.9,381,116.8z"/>
	<rect y="7.7" class="st8" width="699.3" height="29.7"/>
	<circle class="st9" cx="22.1" cy="22.9" r="5.5"/>
	<circle class="st9" cx="43" cy="22.9" r="5.5"/>
	<circle class="st9" cx="63.9" cy="22.9" r="5.5"/>
</g>
</svg>
