<?xml version="1.0" encoding="utf-8"?>
<!-- Generator: Adobe Illustrator 24.0.2, SVG Export Plug-In . SVG Version: 6.00 Build 0)  -->
<svg version="1.1" id="Layer_1" xmlns="http://www.w3.org/2000/svg" xmlns:xlink="http://www.w3.org/1999/xlink" x="0px" y="0px"
	 viewBox="0 0 526.3 526.3" style="enable-background:new 0 0 526.3 526.3;" xml:space="preserve">
<style type="text/css">
	.st0{fill:#1F253C;stroke:#1D1D1B;stroke-miterlimit:10;}
	.st1{fill:#263065;}
	.st2{fill:#EEECEB;}
	.st3{fill:#E8D5CA;}
	.st4{fill:#EBB28B;}
	.st5{fill:#010101;}
</style>
<title>Good-quality-icon</title>
<circle class="st0" cx="263.2" cy="263.2" r="250"/>
<rect x="73.6" y="222.1" class="st1" width="73.4" height="195.7"/>
<circle class="st2" cx="110.3" cy="387.2" r="12.2"/>
<path class="st3" d="M452.8,234.3c0-13.5-11-24.5-24.5-24.5H275.4c0,0,30.6-55,24.5-110.1S250.9,63,250.9,63
	c0,85.6-104,183.5-104,183.5v140.7l55,18.3h189.6c13.5,0,24.5-10.9,24.5-24.4c0-13.5-10.9-24.5-24.4-24.5c0,0,0,0,0,0h12.2
	c13.5-0.3,24.2-11.4,24-25c-0.3-13.1-10.8-23.7-24-24H416c13.5-0.3,24.2-11.4,24-25c-0.3-13.1-10.8-23.7-24-24h12.2
	C441.8,258.8,452.7,247.9,452.8,234.3C452.8,234.3,452.8,234.3,452.8,234.3z"/>
<path class="st4" d="M428.3,240.4h-36.7c-3.4,0-6.1,2.7-6.1,6.1v6.1c0,3.4,2.7,6.1,6.1,6.1h36.2c13.7,0,25.2-11.2,25-24.9
	c0-3-0.7-6-1.8-8.8C447.3,234.4,438.3,240.4,428.3,240.4z"/>
<path class="st4" d="M416.1,289.3h-24.5c-3.4,0-6.1,2.7-6.1,6.1v6.1c0,3.4,2.7,6.1,6.1,6.1h24c13.7,0,25.2-11.2,25-24.9
	c0-3-0.7-6-1.8-8.8C435.1,283.3,426.1,289.4,416.1,289.3z"/>
<path class="st4" d="M403.9,338.3h-12.2c-3.4,0-6.1,2.7-6.1,6.1v6.1c0,3.4,2.7,6.1,6.1,6.1h11.7c13.7,0,25.2-11.2,25-24.9
	c0-3-0.7-6-1.8-8.8C422.8,332.2,413.8,338.3,403.9,338.3z"/>
<path class="st4" d="M414.3,371.9c-3.7,9.2-12.7,15.3-22.7,15.3H202l-55-18.3v18.3l51.3,17.1c2.5,0.8,5.1,1.3,7.7,1.3h185.1
	c13.7,0,25.2-11.2,25-24.9C416,377.7,415.4,374.7,414.3,371.9z"/>
<path class="st4" d="M269.3,63c1.9-0.8,3.9-1.4,5.9-1.8C263,57.9,251,63,251,63c0,85.6-104,183.5-104,183.5v20.9
	C180.2,240.1,269.3,157.6,269.3,63z"/>
<path class="st5" d="M110.3,369.2c-9.9,0-18,8.1-18,18s8.1,18,18,18s18-8.1,18-18S120.2,369.2,110.3,369.2z M110.3,393.7
	c-3.6,0-6.5-2.9-6.5-6.5s2.9-6.5,6.5-6.5s6.5,2.9,6.5,6.5l0,0C116.8,390.8,113.9,393.7,110.3,393.7L110.3,393.7z"/>
<path class="st5" d="M428.3,204.1h-87.9c-3.2,0.1-5.6,2.8-5.5,6c0.1,3,2.5,5.4,5.5,5.5h87.9c10.3,0,18.7,8.4,18.7,18.7
	c0,10.3-8.4,18.7-18.7,18.7l0,0h-42.8c-3.2,0.1-5.6,2.8-5.5,6c0.1,3,2.5,5.4,5.5,5.5h30.6c10.3,0,18.7,8.4,18.7,18.7
	c0,10.3-8.4,18.7-18.7,18.7l0,0h-30.6c-3.2,0-5.7,2.6-5.7,5.7c0,3.2,2.6,5.7,5.7,5.7h18.3c10.3,0,18.7,8.4,18.7,18.7
	c0,10.3-8.4,18.7-18.7,18.7h-18.3c-3.2,0.1-5.6,2.8-5.5,6c0.1,3,2.5,5.4,5.5,5.5h6.1c10.3,0,18.7,8.4,18.7,18.7
	c0,10.3-8.4,18.7-18.7,18.7H206c-2,0-4-0.3-5.9-1L152.7,383V249c18.4-18.2,35.4-37.8,50.9-58.7c33.9-45.9,51.8-87.3,53-123.1
	c5-1.3,14.4-2.9,22.4,1.8c8.3,4.9,13.4,15.4,15.2,31.4c5.8,52.5-23.5,106.1-23.8,106.7c-1.5,2.8-0.4,6.3,2.4,7.8
	c0.8,0.4,1.7,0.7,2.6,0.7h37.5c3.2,0.1,5.8-2.3,6-5.5c0.1-3.2-2.3-5.8-5.5-6c-0.2,0-0.3,0-0.5,0h-28.1c8.4-17.9,25.8-61,20.9-105
	c-2.2-19.8-9.2-33.3-20.8-40c-16.4-9.5-35.3-1.6-36-1.3c-2.1,0.9-3.5,3-3.5,5.3c0,42.6-27.6,88.9-50.8,120.3
	c-12.9,17.3-26.8,33.8-41.8,49.3v-10.6c0-3.2-2.6-5.7-5.7-5.7H73.6c-3.2,0-5.7,2.6-5.7,5.7v195.7c0,3.2,2.6,5.7,5.7,5.7H147
	c3.2,0,5.7-2.6,5.7-5.7v-22.6l43.7,14.6c3.1,1,6.3,1.6,9.5,1.5h185.6c16.7,0,30.2-13.5,30.2-30.2c0-7.6-2.8-14.9-8-20.5
	c15.7-5.5,24-22.7,18.5-38.4c-1.4-3.9-3.5-7.5-6.3-10.5c15.7-5.5,24-22.7,18.5-38.4c-1.4-3.9-3.5-7.5-6.3-10.5
	c15.7-5.5,24-22.7,18.5-38.5C452.6,212.2,441.1,204.1,428.3,204.1L428.3,204.1z M141.2,412H79.3V227.8h61.9V412z"/>
<path class="st3" d="M312.1,69.2c13.5,0,24.5-17.1,24.5-30.6c0,13.5,10.9,30.6,24.5,30.6c-13.5,0-24.5,17.1-24.5,30.6
	C336.6,86.2,325.6,69.2,312.1,69.2z"/>
<path class="st3" d="M122.5,136.4c13.5,0,24.5-17.1,24.5-30.6c0,13.5,11,30.6,24.5,30.6c-13.5,0-24.5,17.1-24.5,30.6
	C147,153.5,136,136.4,122.5,136.4z"/>
<path class="st3" d="M403.9,154.8c13.5,0,24.5-17.1,24.5-30.6c0,13.5,11,30.6,24.5,30.6c-13.5,0-24.5,17.1-24.5,30.6
	C428.3,171.9,417.4,154.8,403.9,154.8z"/>
<path class="st5" d="M403.9,160.5c9.7,0,18.7,14,18.7,24.9c0.1,3.2,2.8,5.6,6,5.5c3-0.1,5.4-2.5,5.5-5.5c0-10.9,9.1-24.9,18.7-24.9
	c3.2-0.1,5.6-2.8,5.5-6c-0.1-3-2.5-5.4-5.5-5.5c-9.7,0-18.7-14-18.7-24.8c0.1-3.2-2.3-5.8-5.5-6s-5.8,2.3-6,5.5c0,0.2,0,0.3,0,0.5
	c0,10.9-9.1,24.8-18.7,24.8c-3.2-0.1-5.8,2.3-6,5.5c-0.1,3.2,2.3,5.8,5.5,6C403.5,160.5,403.7,160.5,403.9,160.5z M428.3,144.3
	c2.3,4,5.4,7.6,9,10.5c-3.6,2.9-6.7,6.5-9,10.5c-2.3-4-5.4-7.6-9-10.5C422.9,151.9,426,148.3,428.3,144.3z"/>
<path class="st5" d="M312.1,74.9c9.7,0,18.7,14,18.7,24.8c-0.1,3.2,2.3,5.8,5.5,6s5.8-2.3,6-5.5c0-0.2,0-0.3,0-0.5
	c0-10.8,9.1-24.8,18.7-24.8c3.2-0.1,5.6-2.8,5.5-6c-0.1-3-2.5-5.4-5.5-5.5c-9.7,0-18.7-14-18.7-24.9c-0.1-3.2-2.8-5.6-6-5.5
	c-3,0.1-5.4,2.5-5.5,5.5c0,10.9-9.1,24.9-18.7,24.9c-3.2-0.1-5.8,2.3-6,5.5c-0.1,3.2,2.3,5.8,5.5,6C311.8,74.9,312,74.9,312.1,74.9
	L312.1,74.9z M336.6,58.6c2.3,4,5.4,7.6,9,10.5c-3.6,2.9-6.7,6.5-9,10.5c-2.3-4-5.4-7.6-9-10.5C331.2,66.2,334.2,62.7,336.6,58.6z"
	/>
<path class="st5" d="M122.5,142.2c9.7,0,18.7,14,18.7,24.9c0.1,3.2,2.8,5.6,6,5.5c3-0.1,5.4-2.5,5.5-5.5c0-10.9,9.1-24.9,18.7-24.9
	c3.2,0,5.7-2.6,5.7-5.7c0-3.2-2.6-5.7-5.7-5.7c-9.7,0-18.7-14-18.7-24.9c-0.1-3.2-2.8-5.6-6-5.5c-3,0.1-5.4,2.5-5.5,5.5
	c0,10.9-9.1,24.9-18.7,24.9c-3.2,0-5.7,2.6-5.7,5.7C116.8,139.6,119.4,142.2,122.5,142.2z M147,125.9c2.3,4,5.4,7.6,9,10.5
	c-3.6,2.9-6.7,6.5-9,10.5c-2.3-4-5.4-7.6-9-10.5C141.6,133.5,144.7,129.9,147,125.9L147,125.9z"/>
</svg>
