<?xml version="1.0" encoding="utf-8"?>
<!-- Generator: Adobe Illustrator 24.0.2, SVG Export Plug-In . SVG Version: 6.00 Build 0)  -->
<svg version="1.1" id="Layer_1" xmlns="http://www.w3.org/2000/svg" xmlns:xlink="http://www.w3.org/1999/xlink" x="0px" y="0px"
	 viewBox="0 0 526.3 526.3" style="enable-background:new 0 0 526.3 526.3;" xml:space="preserve">
<style type="text/css">
	.st0{fill:#1F253C;stroke:#1D1D1B;stroke-miterlimit:10;}
	.st1{fill:#A5AED4;}
	.st2{fill:#E8D5CA;}
	.st3{opacity:0.5;fill:#EBB28B;enable-background:new    ;}
	.st4{fill:#EBB28B;}
	.st5{fill:#B6E1FA;}
	.st6{fill:#F1F4FB;}
	.st7{fill:#5C5E6F;}
	.st8{fill:#A0D4F4;}
	.st9{fill:#6D6889;}
	.st10{fill:#010101;}
</style>
<title>quick-delivery-icon</title>
<g>
	<circle class="st0" cx="268.2" cy="263.2" r="250"/>
	<path class="st1" d="M354.1,134.2H96.2c-4,0-7.2,3.2-7.2,7.2v150.4h21.5c7.9,0,14.3,6.4,14.3,14.3c0,7.9-6.4,14.3-14.3,14.3H89.1
		V342c0,4,3.2,7.2,7.2,7.2h265.1V141.4C361.3,137.4,358.1,134.2,354.1,134.2z"/>
	<path class="st2" d="M447.3,248.8h-86v100.3h114.6v-71.7C475.9,261.7,463.1,248.8,447.3,248.8C447.3,248.8,447.3,248.8,447.3,248.8
		z"/>
	<path class="st3" d="M361.3,270.3h77.6c7.9,0,14.3,6.4,14.3,14.3c0,0,0,0,0,0v64.5h-91.9L361.3,270.3z"/>
	<path class="st4" d="M418.6,162.9h-57.3v28.7h78.8v-7.2C440.1,172.5,430.5,162.9,418.6,162.9z"/>
	<polygon class="st5" points="447.3,248.8 432.9,191.5 361.3,191.5 361.3,248.8 	"/>
	<path class="st6" d="M447.3,277.5h28.7v28.7h-14.3c-7.9,0-14.3-6.4-14.3-14.3L447.3,277.5L447.3,277.5z"/>
	<path class="st4" d="M411.4,299c-20.9,0-40.1,11.3-50.1,29.6v20.6h107C464.7,320.5,440.3,299,411.4,299z"/>
	<path class="st4" d="M453.2,317.1v32h15C466.8,337.2,461.5,326,453.2,317.1z"/>
	<circle class="st7" cx="411.4" cy="356.3" r="35.8"/>
	<path class="st8" d="M389.9,213.1h48.4l-5.4-21.5h-71.6v57.3h21.5v-28.6C382.8,216.3,386,213.1,389.9,213.1
		C389.9,213.1,389.9,213.1,389.9,213.1z"/>
	<path class="st9" d="M175,299c-17.4,0-33.9,7.9-44.7,21.5H89.1V342c0,4,3.2,7.2,7.2,7.2l0,0h265.1v-28.7H219.7
		C208.9,306.9,192.4,299,175,299z"/>
	<circle class="st7" cx="175" cy="356.3" r="35.8"/>
	<path class="st10" d="M452.6,242.6l-11.1-44.4c3.1-0.7,5.3-3.4,5.3-6.6v-7.2c0-15.6-12.6-28.2-28.2-28.2H368v-14.8
		c0-7.7-6.2-13.9-13.9-13.9H96.2c-7.7,0-13.9,6.2-13.9,13.9v121.8c-0.1,3.7,2.8,6.8,6.5,7c3.7,0.1,6.8-2.8,7-6.5c0-0.2,0-0.3,0-0.5
		V141.4c0-0.2,0.2-0.4,0.4-0.4l0,0h257.9c0.2,0,0.4,0.2,0.4,0.4v121.8c-0.1,3.7,2.8,6.8,6.5,7c3.7,0.1,6.8-2.8,7-6.5
		c0-0.2,0-0.3,0-0.5v-7.6h79.3c9.5,0,17.9,6.2,20.9,15.2h-20.9c-3.7,0-6.7,3-6.7,6.7v14.3c0,11.6,9.4,21,21,21h7.6v29.5h-17.6
		c-7.7-22.2-31.9-34-54.1-26.3c-12.4,4.3-22.1,14-26.3,26.3H368v-50.6c0-3.7-3-6.7-6.7-6.7c-3.7,0-6.7,3-6.7,6.7c0,0,0,0,0,0v50.6
		H215.2c-7.7-22.2-31.9-34-54.1-26.3c-12.4,4.3-22.1,14-26.3,26.3H96.2c-0.2,0-0.4-0.2-0.4-0.4v-14.8h29.1c3.7,0.1,6.8-2.8,7-6.5
		c0.1-3.7-2.8-6.8-6.5-7c-0.2,0-0.3,0-0.5,0H60.4c-3.7-0.1-6.8,2.8-7,6.5c-0.1,3.7,2.8,6.8,6.5,7c0.2,0,0.3,0,0.5,0h21.9V342
		c0,7.7,6.3,13.9,13.9,13.9h36.3c0,0.2,0,0.3,0,0.4c0,23.5,19,42.5,42.5,42.5s42.5-19,42.5-42.5c0-0.2,0-0.3,0-0.4h151.3
		c0,0.2,0,0.3,0,0.4c0,23.5,19,42.5,42.5,42.5s42.5-19,42.5-42.5c0-0.2,0-0.3,0-0.4h22c3.7,0,6.7-3,6.7-6.7v-71.7
		C482.6,260.1,469.8,245.2,452.6,242.6z M368,198.3h59.7l11,43.9H368V198.3L368,198.3z M418.6,169.6c8.2,0,14.8,6.6,14.8,14.7v0.4
		H368v-15.2L418.6,169.6z M175,385.4c-16.1,0-29.1-13-29.1-29.1c0-16.1,13-29.1,29.1-29.1c16.1,0,29.1,13,29.1,29.1
		C204.1,372.4,191.1,385.4,175,385.4z M411.4,385.4c-16.1,0-29.1-13-29.1-29.1c0-16.1,13-29.1,29.1-29.1c16.1,0,29.1,13,29.1,29.1
		C440.5,372.4,427.5,385.4,411.4,385.4z M461.6,299.4c-4.2,0-7.6-3.4-7.6-7.6v-7.6h15.2v15.2H461.6z"/>
	<path class="st10" d="M175,342.4c-7.7,0-13.9,6.2-13.9,13.9c0,7.7,6.2,13.9,13.9,13.9c7.7,0,13.9-6.2,13.9-13.9
		C188.9,348.6,182.7,342.4,175,342.4z"/>
	<path class="st10" d="M411.4,342.4c-7.7,0-13.9,6.2-13.9,13.9c0,7.7,6.2,13.9,13.9,13.9c7.7,0,13.9-6.2,13.9-13.9
		C425.3,348.6,419.1,342.4,411.4,342.4z"/>
	<path class="st10" d="M225.6,320.5c0,3.7,3,6.7,6.7,6.7h100.3c3.7-0.1,6.6-3.3,6.5-7c-0.1-3.5-2.9-6.3-6.5-6.5H232.4
		C228.6,313.8,225.6,316.8,225.6,320.5z"/>
	<path class="st10" d="M74.7,298.5h86c3.7-0.1,6.6-3.3,6.5-7c-0.1-3.5-2.9-6.3-6.5-6.5h-86c-3.7,0.1-6.6,3.3-6.5,7
		C68.4,295.6,71.2,298.4,74.7,298.5z"/>
	<path class="st10" d="M277.7,194L218,253.7l-31.1-31.1c-2.6-2.6-6.9-2.6-9.5,0s-2.6,6.9,0,9.5l35.8,35.8c2.6,2.6,6.9,2.6,9.5,0
		c0,0,0,0,0,0l64.5-64.5c2.6-2.6,2.6-6.9,0-9.5S280.3,191.3,277.7,194L277.7,194L277.7,194z"/>
</g>
</svg>
