<svg id="a80234ba-f3f6-42a2-9225-8d803f7486aa" xmlns="http://www.w3.org/2000/svg" viewBox="0 0 858.86 618.05"><defs><style>.cls-1{fill:#ecb28b;}.cls-2{fill:#e6e6e6;}.cls-3{fill:#fefefe;}.cls-4{fill:#6c6889;}.cls-5{fill:#fff;}.cls-6{fill:#3f3d56;}.cls-7{fill:#a4aed3;}.cls-8{opacity:0.1;}.cls-8,.cls-9{isolation:isolate;}.cls-9{opacity:0.05;}.cls-10{fill:#ffb8b8;}.cls-11{fill:#2f2e41;}.cls-12{fill:#575a89;}</style></defs><title>undraw1</title><path class="cls-1" d="M599.5,15.3C503.1-.9,431.2,31.3,302.6,88.8,140.3,161.4,38.2,207,20.6,292.8c-23.7,115.8,111,238.7,228.6,289.8,167.9,72.9,397.3,41.7,519.9-95.2,16.3-18.2,137.2-157.7,72.4-304.8C781.7,46.9,613.4,17.6,599.5,15.3Z" transform="translate(-9.96 -5.57)"/><rect class="cls-2" x="43.39" y="73.9" width="546.1" height="349.8"/><rect class="cls-3" x="58.99" y="117.8" width="514.9" height="285.2"/><rect class="cls-4" x="43.09" y="73.6" width="546.1" height="23.2"/><circle class="cls-5" cx="60.39" cy="85.5" r="4.3"/><circle class="cls-5" cx="76.69" cy="85.5" r="4.3"/><circle class="cls-5" cx="92.99" cy="85.5" r="4.3"/><rect class="cls-2" x="122.29" y="141.2" width="100.7" height="109.3"/><rect class="cls-2" x="266.09" y="141.2" width="100.7" height="109.3"/><rect class="cls-2" x="409.79" y="141.2" width="100.7" height="109.3"/><rect class="cls-2" x="122.29" y="270.3" width="100.7" height="109.3"/><rect class="cls-2" x="266.09" y="270.3" width="100.7" height="109.3"/><rect class="cls-2" x="409.79" y="270.3" width="100.7" height="109.3"/><path class="cls-1" d="M300.35,303.88l18.4-7.3,2.1,36.4s3.9,11.1,2.6,15.4c0,0,.9,7.3-1.3,7.7s-8.1,1.3-8.6.9-.4-1.7-.4-1.7-4.3,3-4.7,6.4c0,0-18,5.6-18.4.4s9-9.4,9-9.4l7.3-11.1Z" transform="translate(-9.96 -5.57)"/><path class="cls-1" d="M339.25,303.88l18.4-7.3,2.1,36.4s3.9,11.1,2.6,15.4c0,0,.9,7.3-1.3,7.7s-8.1,1.3-8.6.9-.4-1.7-.4-1.7-4.3,3-4.7,6.4c0,0-18,5.6-18.4.4s9-9.4,9-9.4l7.3-11.1Z" transform="translate(-9.96 -5.57)"/><path class="cls-6" d="M341.05,163.48s-3.9,10.9.6,15.9l-3.8,13s13.4,40.3,9.6,46c0,0-14.3,7.2-43-2.6l11.7-45.2-1.7-19.1,2.3-9,5.1-.5s-3.1,11.5,2.6,13.3,11.1-13,11.1-13Z" transform="translate(-9.96 -5.57)"/><path class="cls-1" d="M160.15,234.18l4.9,2,23.6-31,7.4,36.4,4.9-.9c3.2-31.4,5.8-63.4,2.6-78.5l-18.3-.8-8.3,26.5-4,18Z" transform="translate(-9.96 -5.57)"/><path class="cls-7" d="M460.25,161.88s-6.7,9.4-6.4,13.2,4.6,65.5,4.6,65.5l10,.5-3-44.4,2.5-12,6.1,56,12.3.3-11-72.6-2.1-6.4Z" transform="translate(-9.96 -5.57)"/><path class="cls-6" d="M498.35,313c-1.8-2.1-4.9-3.3-7.8-3.9.1-.3-9-2.1-9.1-1.8l-3.4-2.7-10.5,5.5-5.9-4-2.7,1c.1-.5-8.5,1-8.5,1-1.6.1-3.8.2-6.1.3-8.3.6-8.9,22-8.9,22a33,33,0,0,1,12-2.5l2.2,25.6c11.5-1,23.5.2,36,3l5.9-20.1,13.6-5.3C505,331,502.65,318.08,498.35,313Z" transform="translate(-9.96 -5.57)"/><path class="cls-7" d="M206,300.78c-1.5-1.8-4-2.7-6.5-3.2.1-.2-7.4-1.8-7.5-1.4l-2.8-2.2-8.7,4.5-4.9-3.3-2.3.8c.1-.4-7,.8-7,.8a49,49,0,0,0-5,.3c-6.8.5-7.3,18.1-7.3,18.1a27.85,27.85,0,0,1,9.9-2.1l1.8,51.6a98.32,98.32,0,0,1,29.7,2.4l4.8-47.1,11.2-4.4C211.35,315.68,209.45,305,206,300.78Z" transform="translate(-9.96 -5.57)"/><polygon class="cls-2" points="562.39 592.5 494.29 606.5 492.69 606.3 432.79 600.3 432.79 524.4 506.09 512 559.29 518.2 559.29 518.6 559.29 518.7 562.39 592.5"/><polygon class="cls-8" points="562.39 592.5 494.29 606.5 492.69 606.3 492.69 528.5 559.29 518.6 562.39 592.5"/><polygon class="cls-9" points="559.29 518.7 559.29 518.7 492.69 528.5 432.79 524.4 506.09 512 559.29 518.2 559.29 518.6 559.29 518.7"/><rect class="cls-5" x="461.36" y="546.78" width="19.5" height="41.5" transform="translate(-135.85 995.1) rotate(-86.27)"/><rect class="cls-4" x="467.66" y="556.47" width="6.8" height="22" transform="translate(-135.84 995.01) rotate(-86.27)"/><polygon class="cls-4" points="654.69 592.5 586.59 606.5 584.99 606.3 525.19 600.3 525.19 524.4 598.49 512 651.59 518.2 651.59 518.6 651.59 518.7 654.69 592.5"/><polygon class="cls-8" points="654.69 592.5 586.59 606.5 584.99 606.3 584.99 528.5 651.59 518.6 654.69 592.5"/><polygon class="cls-9" points="651.59 518.7 651.59 518.7 584.99 528.5 525.19 524.4 598.49 512 651.59 518.2 651.59 518.6 651.59 518.7"/><rect class="cls-5" x="553.69" y="546.81" width="19.5" height="41.5" transform="translate(-49.56 1087.27) rotate(-86.27)"/><rect class="cls-4" x="559.99" y="556.5" width="6.8" height="22" transform="translate(-49.55 1087.17) rotate(-86.27)"/><path class="cls-10" d="M714,219.48s12,31.1-10,31.1,34.1,31.1,56.1,13,9-19,9-19-29,3-28-23Z" transform="translate(-9.96 -5.57)"/><circle class="cls-11" cx="719.69" cy="187.8" r="35.4"/><path class="cls-7" d="M708,348.68l-38.1,98.2s-19,30-12,60.1,26.3,84.7,26.3,84.7,14.6,3.7,13.6-9.3.6-76.2-14.4-93.2l60.7-69.4,2,79.1s-4,36.1-3,52.1,3,43.1,3,43.1l12-2s16.2-73.8,14.2-97.8c0,0,37.2-116.8-.8-144.9Z" transform="translate(-9.96 -5.57)"/><path class="cls-11" d="M688.35,591.48s-4.9-1.2-5.5,3.2-10.9,24.5-.1,25.5,14.5-9.1,16.3-16.1,2.5-7.5,4-8.8,5.1-8.8.6-9.4-6.8-5-6.8-5S695.45,593.28,688.35,591.48Z" transform="translate(-9.96 -5.57)"/><path class="cls-11" d="M753.85,588.08s-9.1-1.3-8.4,1.9-1.3,16.9,0,18.2,3.9,3.9,3.9,5.8.6,8.4,11.7,6.5,8.4-11.7,7.8-13-8.4-7.8-7.8-11.7S757.75,585.48,753.85,588.08Z" transform="translate(-9.96 -5.57)"/><circle class="cls-10" cx="720.09" cy="202.6" r="24.5"/><path class="cls-12" d="M753.55,242s8.6,16.9-17.2,17.4c-7.9.1-17.4-5.6-21.3-12.5-2.3-4.1-2.9,1.6-6.6,1.1-7-.8-14.5,2.1-21.2,5.7a4.21,4.21,0,0,0-2.1,5c5.1,16.9,19.6,98.2,21.9,102.6,5.7,11.3,67.8-7.6,67.8-7.6.9-30.7-10.3-73.8,9.3-105A37.73,37.73,0,0,0,753.55,242Z" transform="translate(-9.96 -5.57)"/><polygon class="cls-11" points="743.09 183.7 725.09 174.3 700.19 178.2 695.09 200.8 707.89 200.3 711.49 192 711.49 200.2 717.39 200 720.79 186.7 722.89 200.8 743.89 200.4 743.09 183.7"/><circle class="cls-11" cx="721.49" cy="147.4" r="14.3"/><path class="cls-11" d="M713.45,148.68a14.13,14.13,0,0,1,12.1-14.1,14.31,14.31,0,1,0-4.3,28.3,15.48,15.48,0,0,0,4.3,0A14.56,14.56,0,0,1,713.45,148.68Z" transform="translate(-9.96 -5.57)"/><polygon class="cls-2" points="785.99 483.3 717.89 497.2 716.29 497 656.49 491 656.49 415.1 729.79 402.7 782.89 408.9 782.89 409.3 782.89 409.4 785.99 483.3"/><polygon class="cls-8" points="785.99 483.3 717.89 497.2 716.29 497 716.29 419.3 782.89 409.3 785.99 483.3"/><polygon class="cls-9" points="782.89 409.4 782.89 409.5 716.29 419.3 656.49 415.1 729.79 402.7 782.89 408.9 782.89 409.3 782.89 409.4"/><rect class="cls-5" x="684.96" y="437.53" width="19.5" height="41.5" transform="translate(182.21 1116.09) rotate(-86.27)"/><rect class="cls-4" x="691.36" y="447.23" width="6.8" height="22" transform="translate(182.3 1116.1) rotate(-86.27)"/><path class="cls-10" d="M689.85,401.18s-25,20-14,27,24-27,24-27Z" transform="translate(-9.96 -5.57)"/><path class="cls-12" d="M691,252.88c-1.3-1.5-17.7,6.9-15.2,17.8l1.1,75.5s-6,62.1,9,62.1,13.3,2.1,15.3-2.9,2.5-47.4,2.5-47.4Z" transform="translate(-9.96 -5.57)"/><path class="cls-10" d="M768.35,394.48s13,34.1,24,27-14-27-14-27Z" transform="translate(-9.96 -5.57)"/><path class="cls-12" d="M771.35,352s-6.2,41.6-4.2,46.6.2,2.9,15.3,2.9,9-62.1,9-62.1l1.1-75.5c2.4-10.9-14-19.3-15.2-17.8L763,295.18Z" transform="translate(-9.96 -5.57)"/><path class="cls-7" d="M73,487c-9.6-7.36-23.42-18-38-14-15.7,4.26-25.8,23.58-25,40,1,21,19.79,36,34,42,3.1,1.3,8.78,2,20,3.9,21.93,3.68,24,2.18,29,5.1,12.74,7.4,6.71,22.11,18,32,17.47,15.3,57.68,12.66,66-7,4.73-11.17-.61-26.79-10-36-15.52-15.23-31.49-3-53-16C93,524.27,99.39,507.23,73,487Z" transform="translate(-9.96 -5.57)"/><path class="cls-7" d="M68,578c-8.43-8.56-22.12-7.78-31-4-11.6,4.94-21.28,17.7-19,29,3.28,16.27,30.87,27.32,46,16C75.66,610.28,78.88,589.06,68,578Z" transform="translate(-9.96 -5.57)"/><path class="cls-7" d="M661.17,19.48C657.85,26.55,726,32.66,772.43,75.76,800.25,101.6,880.71,85,867.32,57,844,8.32,666.42,8.3,661.17,19.48Z" transform="translate(-9.96 -5.57)"/><path class="cls-7" d="M293.73,63.94c.53-2.53-8.21-4.67-23.26-14.46-16.85-10.95-18.88-16.72-27.54-17.09C233.7,32,222.62,38,221.51,46.2c-1,7.71,7.11,14.44,8,15.11,6.88,5.52,13.52,4.25,33.06,4C285.24,64.9,293.23,66.35,293.73,63.94Z" transform="translate(-9.96 -5.57)"/><path class="cls-7" d="M297.09,59.06c-3.21,1.21-8.57-7.17-14.69-16.76-7.64-12-11.44-18.07-10.1-23.66,1.77-7.38,10.07-14.5,18.37-12.82,8.07,1.64,12.05,10.79,12.85,16.76.61,4.58-.86,5.66-2.76,15.78C298.1,52.56,299.56,58.13,297.09,59.06Z" transform="translate(-9.96 -5.57)"/></svg>